<mxfile host="app.diagrams.net" modified="2022-05-05T02:22:11.768Z" agent="5.0 (Windows NT 10.0; Win64; x64) AppleWebKit/537.36 (KHTML, like Gecko) Chrome/101.0.4951.54 Safari/537.36" etag="ELdnyU9zdK_sMsaqsF1H" version="17.5.0" type="github">
  <diagram name="Page-1" id="0783ab3e-0a74-02c8-0abd-f7b4e66b4bec">
    <mxGraphModel dx="1422" dy="1862" grid="1" gridSize="10" guides="1" tooltips="1" connect="1" arrows="1" fold="1" page="1" pageScale="1" pageWidth="850" pageHeight="1100" background="none" math="0" shadow="0">
      <root>
        <mxCell id="0" />
        <mxCell id="1" parent="0" />
        <mxCell id="_-Kw2KSfdPKbc4KW5EaQ-1" value="" style="html=1;" parent="1" vertex="1">
          <mxGeometry x="120" y="10" width="800" height="860" as="geometry" />
        </mxCell>
        <mxCell id="_-Kw2KSfdPKbc4KW5EaQ-2" value="ACFIT&lt;br&gt;Aplicativo de Acompanhamento Fitness" style="text;html=1;resizable=0;autosize=1;align=center;verticalAlign=middle;points=[];fillColor=none;strokeColor=none;rounded=0;" parent="1" vertex="1">
          <mxGeometry x="1300" y="-60" width="230" height="30" as="geometry" />
        </mxCell>
        <mxCell id="_-Kw2KSfdPKbc4KW5EaQ-3" value="Nutricionista" style="shape=umlActor;verticalLabelPosition=bottom;verticalAlign=top;html=1;outlineConnect=0;" parent="1" vertex="1">
          <mxGeometry x="40" y="220" width="40" height="80" as="geometry" />
        </mxCell>
        <mxCell id="_-Kw2KSfdPKbc4KW5EaQ-7" value="Fazer Login" style="ellipse;whiteSpace=wrap;html=1;" parent="1" vertex="1">
          <mxGeometry x="240" y="220" width="120" height="80" as="geometry" />
        </mxCell>
        <mxCell id="_-Kw2KSfdPKbc4KW5EaQ-9" value="Visualizar Agenda&lt;span style=&quot;color: rgba(0 , 0 , 0 , 0) ; font-family: monospace ; font-size: 0px&quot;&gt;%3CmxGraphModel%3E%3Croot%3E%3CmxCell%20id%3D%220%22%2F%3E%3CmxCell%20id%3D%221%22%20parent%3D%220%22%2F%3E%3CmxCell%20id%3D%222%22%20value%3D%22Login%22%20style%3D%22text%3Bhtml%3D1%3Bresizable%3D0%3Bautosize%3D1%3Balign%3Dcenter%3BverticalAlign%3Dmiddle%3Bpoints%3D%5B%5D%3BfillColor%3Dnone%3BstrokeColor%3Dnone%3Brounded%3D0%3B%22%20vertex%3D%221%22%20parent%3D%221%22%3E%3CmxGeometry%20x%3D%22245%22%20y%3D%22270%22%20width%3D%2250%22%20height%3D%2220%22%20as%3D%22geometry%22%2F%3E%3C%2FmxCell%3E%3C%2Froot%3E%3C%2FmxGraphModel%3E&lt;/span&gt;" style="ellipse;whiteSpace=wrap;html=1;" parent="1" vertex="1">
          <mxGeometry x="720" y="590" width="120" height="80" as="geometry" />
        </mxCell>
        <mxCell id="_-Kw2KSfdPKbc4KW5EaQ-11" value="&lt;span style=&quot;font-weight: normal&quot;&gt;Cadastrar clientes&lt;span style=&quot;color: rgba(0 , 0 , 0 , 0) ; font-family: monospace ; font-size: 0px&quot;&gt;mxGraphModelas%3E%3Croot%3E%3CmxCell%20id%3D%220%22%2F%3E%3CmxCell%20id%3D%221%22%20parent%3D%220%22%2F%3E%3CmxCell%20id%3D%222%22%20value%3D%22Login%22%20style%3D%22text%3Bhtml%3D1%3Bresizable%3D0%3Bautosize%3D1%3Balign%3Dcenter%3BverticalAlign%3Dmiddle%3Bpoints%3D%5B%5D%3BfillColor%3Dnone%3BstrokeColor%3Dnone%3Brounded%3D0%3B%22%20vertex%3D%221%22%20parent%3D%221%22%3E%3CmxGeometry%20x%3D%22245%22%20y%3D%22270%22%20width%3D%2250%22%20height%3D%2220%22%20as%3D%22geometry%22%2F%3E%3C%2FmxCell%3E%3C%2Froot%3E%3C%2FmxGraphModel%3E&lt;/span&gt;&lt;/span&gt;" style="ellipse;whiteSpace=wrap;html=1;fontStyle=1" parent="1" vertex="1">
          <mxGeometry x="720" y="790" width="120" height="80" as="geometry" />
        </mxCell>
        <mxCell id="_-Kw2KSfdPKbc4KW5EaQ-12" value="&lt;span style=&quot;font-weight: 400&quot;&gt;Editar a Agenda&lt;/span&gt;" style="ellipse;whiteSpace=wrap;html=1;fontStyle=1" parent="1" vertex="1">
          <mxGeometry x="720" y="690" width="120" height="80" as="geometry" />
        </mxCell>
        <mxCell id="_-Kw2KSfdPKbc4KW5EaQ-14" value="Verificar Senha" style="ellipse;whiteSpace=wrap;html=1;" parent="1" vertex="1">
          <mxGeometry x="170" y="50" width="120" height="80" as="geometry" />
        </mxCell>
        <mxCell id="_-Kw2KSfdPKbc4KW5EaQ-15" value="Exibir erro de Login" style="ellipse;whiteSpace=wrap;html=1;" parent="1" vertex="1">
          <mxGeometry x="320" y="50" width="120" height="80" as="geometry" />
        </mxCell>
        <mxCell id="_-Kw2KSfdPKbc4KW5EaQ-16" value="Cadastrar novos Nutricionistas" style="ellipse;whiteSpace=wrap;html=1;" parent="1" vertex="1">
          <mxGeometry x="720" y="500" width="120" height="80" as="geometry" />
        </mxCell>
        <mxCell id="_-Kw2KSfdPKbc4KW5EaQ-24" value="" style="endArrow=none;html=1;rounded=0;entryX=0;entryY=0.5;entryDx=0;entryDy=0;exitX=0.5;exitY=0.5;exitDx=0;exitDy=0;exitPerimeter=0;" parent="1" source="_-Kw2KSfdPKbc4KW5EaQ-3" target="_-Kw2KSfdPKbc4KW5EaQ-7" edge="1">
          <mxGeometry width="50" height="50" relative="1" as="geometry">
            <mxPoint x="580" y="520" as="sourcePoint" />
            <mxPoint x="630" y="470" as="targetPoint" />
          </mxGeometry>
        </mxCell>
        <mxCell id="_-Kw2KSfdPKbc4KW5EaQ-30" value="&amp;lt;&amp;lt;Incluir&amp;gt;&amp;gt;" style="endArrow=open;endSize=12;dashed=1;html=1;rounded=0;entryX=0.5;entryY=1;entryDx=0;entryDy=0;exitX=0.5;exitY=0;exitDx=0;exitDy=0;" parent="1" source="_-Kw2KSfdPKbc4KW5EaQ-7" target="_-Kw2KSfdPKbc4KW5EaQ-14" edge="1">
          <mxGeometry width="160" relative="1" as="geometry">
            <mxPoint x="550" y="360" as="sourcePoint" />
            <mxPoint x="710" y="360" as="targetPoint" />
          </mxGeometry>
        </mxCell>
        <mxCell id="_-Kw2KSfdPKbc4KW5EaQ-31" value="&amp;lt;&amp;lt;Estender&amp;gt;&amp;gt;" style="endArrow=open;endSize=12;dashed=1;html=1;rounded=0;entryX=0.5;entryY=0;entryDx=0;entryDy=0;exitX=0.5;exitY=1;exitDx=0;exitDy=0;" parent="1" source="_-Kw2KSfdPKbc4KW5EaQ-15" target="_-Kw2KSfdPKbc4KW5EaQ-7" edge="1">
          <mxGeometry width="160" relative="1" as="geometry">
            <mxPoint x="550" y="360" as="sourcePoint" />
            <mxPoint x="710" y="360" as="targetPoint" />
          </mxGeometry>
        </mxCell>
        <mxCell id="_-Kw2KSfdPKbc4KW5EaQ-44" value="Visualizar pÃ¡gina&amp;nbsp;" style="ellipse;whiteSpace=wrap;html=1;" parent="1" vertex="1">
          <mxGeometry x="430" y="220" width="120" height="80" as="geometry" />
        </mxCell>
        <mxCell id="_-Kw2KSfdPKbc4KW5EaQ-45" value="" style="endArrow=none;html=1;rounded=0;exitX=1;exitY=0.5;exitDx=0;exitDy=0;entryX=0;entryY=0.5;entryDx=0;entryDy=0;" parent="1" source="_-Kw2KSfdPKbc4KW5EaQ-7" target="_-Kw2KSfdPKbc4KW5EaQ-44" edge="1">
          <mxGeometry width="50" height="50" relative="1" as="geometry">
            <mxPoint x="340" y="410" as="sourcePoint" />
            <mxPoint x="460" y="360" as="targetPoint" />
          </mxGeometry>
        </mxCell>
        <mxCell id="_-Kw2KSfdPKbc4KW5EaQ-49" value="" style="endArrow=none;html=1;rounded=0;exitX=1;exitY=0.5;exitDx=0;exitDy=0;entryX=0;entryY=0.5;entryDx=0;entryDy=0;" parent="1" source="_-Kw2KSfdPKbc4KW5EaQ-44" target="_-Kw2KSfdPKbc4KW5EaQ-16" edge="1">
          <mxGeometry width="50" height="50" relative="1" as="geometry">
            <mxPoint x="580" y="460" as="sourcePoint" />
            <mxPoint x="629.9999999999864" y="460" as="targetPoint" />
          </mxGeometry>
        </mxCell>
        <mxCell id="_-Kw2KSfdPKbc4KW5EaQ-50" value="Visualizar Agenda&lt;span style=&quot;color: rgba(0 , 0 , 0 , 0) ; font-family: monospace ; font-size: 0px&quot;&gt;%3CmxGraphModel%3E%3Croot%3E%3CmxCell%20id%3D%220%22%2F%3E%3CmxCell%20id%3D%221%22%20parent%3D%220%22%2F%3E%3CmxCell%20id%3D%222%22%20value%3D%22Login%22%20style%3D%22text%3Bhtml%3D1%3Bresizable%3D0%3Bautosize%3D1%3Balign%3Dcenter%3BverticalAlign%3Dmiddle%3Bpoints%3D%5B%5D%3BfillColor%3Dnone%3BstrokeColor%3Dnone%3Brounded%3D0%3B%22%20vertex%3D%221%22%20parent%3D%221%22%3E%3CmxGeometry%20x%3D%22245%22%20y%3D%22270%22%20width%3D%2250%22%20height%3D%2220%22%20as%3D%22geometry%22%2F%3E%3C%2FmxCell%3E%3C%2Froot%3E%3C%2FmxGraphModel%3E&lt;/span&gt;" style="ellipse;whiteSpace=wrap;html=1;" parent="1" vertex="1">
          <mxGeometry x="720" y="30" width="120" height="80" as="geometry" />
        </mxCell>
        <mxCell id="_-Kw2KSfdPKbc4KW5EaQ-52" value="&lt;span style=&quot;font-weight: 400&quot;&gt;Editar a Agenda&lt;/span&gt;" style="ellipse;whiteSpace=wrap;html=1;fontStyle=1" parent="1" vertex="1">
          <mxGeometry x="720" y="120" width="120" height="80" as="geometry" />
        </mxCell>
        <mxCell id="_-Kw2KSfdPKbc4KW5EaQ-53" value="" style="endArrow=none;html=1;rounded=0;exitX=1;exitY=0.5;exitDx=0;exitDy=0;entryX=0;entryY=0.5;entryDx=0;entryDy=0;" parent="1" source="_-Kw2KSfdPKbc4KW5EaQ-44" target="_-Kw2KSfdPKbc4KW5EaQ-9" edge="1">
          <mxGeometry width="50" height="50" relative="1" as="geometry">
            <mxPoint x="580" y="460" as="sourcePoint" />
            <mxPoint x="629.9999999999864" y="550" as="targetPoint" />
          </mxGeometry>
        </mxCell>
        <mxCell id="_-Kw2KSfdPKbc4KW5EaQ-54" value="" style="endArrow=none;html=1;rounded=0;exitX=1;exitY=0.5;exitDx=0;exitDy=0;entryX=0;entryY=0.5;entryDx=0;entryDy=0;" parent="1" source="_-Kw2KSfdPKbc4KW5EaQ-44" target="_-Kw2KSfdPKbc4KW5EaQ-12" edge="1">
          <mxGeometry width="50" height="50" relative="1" as="geometry">
            <mxPoint x="580" y="460" as="sourcePoint" />
            <mxPoint x="629.9999999999864" y="640" as="targetPoint" />
          </mxGeometry>
        </mxCell>
        <mxCell id="_-Kw2KSfdPKbc4KW5EaQ-55" value="" style="endArrow=none;html=1;rounded=0;exitX=1;exitY=0.5;exitDx=0;exitDy=0;entryX=0;entryY=0.5;entryDx=0;entryDy=0;" parent="1" source="_-Kw2KSfdPKbc4KW5EaQ-44" target="_-Kw2KSfdPKbc4KW5EaQ-11" edge="1">
          <mxGeometry width="50" height="50" relative="1" as="geometry">
            <mxPoint x="580" y="460" as="sourcePoint" />
            <mxPoint x="629.9999999999864" y="740.0000000000002" as="targetPoint" />
          </mxGeometry>
        </mxCell>
        <mxCell id="_-Kw2KSfdPKbc4KW5EaQ-57" value="" style="endArrow=none;html=1;rounded=0;exitX=1;exitY=0.5;exitDx=0;exitDy=0;entryX=0;entryY=0.5;entryDx=0;entryDy=0;" parent="1" source="_-Kw2KSfdPKbc4KW5EaQ-44" target="_-Kw2KSfdPKbc4KW5EaQ-52" edge="1">
          <mxGeometry width="50" height="50" relative="1" as="geometry">
            <mxPoint x="580" y="360" as="sourcePoint" />
            <mxPoint x="629.9999999999864" y="360" as="targetPoint" />
          </mxGeometry>
        </mxCell>
        <mxCell id="_-Kw2KSfdPKbc4KW5EaQ-58" value="" style="endArrow=none;html=1;rounded=0;entryX=0;entryY=0.5;entryDx=0;entryDy=0;exitX=1;exitY=0.5;exitDx=0;exitDy=0;" parent="1" source="_-Kw2KSfdPKbc4KW5EaQ-44" target="_-Kw2KSfdPKbc4KW5EaQ-50" edge="1">
          <mxGeometry width="50" height="50" relative="1" as="geometry">
            <mxPoint x="570" y="350" as="sourcePoint" />
            <mxPoint x="629.9999999999864" y="260" as="targetPoint" />
          </mxGeometry>
        </mxCell>
        <mxCell id="_-Kw2KSfdPKbc4KW5EaQ-65" value="Atendente" style="shape=umlActor;verticalLabelPosition=bottom;verticalAlign=top;html=1;outlineConnect=0;" parent="1" vertex="1">
          <mxGeometry x="40" y="520" width="40" height="80" as="geometry" />
        </mxCell>
        <mxCell id="_-Kw2KSfdPKbc4KW5EaQ-67" value="" style="endArrow=none;html=1;rounded=0;exitX=0.5;exitY=0.5;exitDx=0;exitDy=0;exitPerimeter=0;" parent="1" source="_-Kw2KSfdPKbc4KW5EaQ-65" target="_-Kw2KSfdPKbc4KW5EaQ-1" edge="1">
          <mxGeometry width="50" height="50" relative="1" as="geometry">
            <mxPoint x="70" y="560" as="sourcePoint" />
            <mxPoint x="220.00000000000205" y="550" as="targetPoint" />
          </mxGeometry>
        </mxCell>
        <mxCell id="_-Kw2KSfdPKbc4KW5EaQ-73" value="Verificar Tipo do UsuÃ¡rio" style="ellipse;whiteSpace=wrap;html=1;" parent="1" vertex="1">
          <mxGeometry x="240" y="350" width="120" height="80" as="geometry" />
        </mxCell>
        <mxCell id="_-Kw2KSfdPKbc4KW5EaQ-74" value="&amp;lt;&amp;lt;Incluir&amp;gt;&amp;gt;" style="endArrow=open;endSize=12;dashed=1;html=1;rounded=0;entryX=0.5;entryY=0;entryDx=0;entryDy=0;exitX=0.5;exitY=1;exitDx=0;exitDy=0;" parent="1" source="_-Kw2KSfdPKbc4KW5EaQ-7" target="_-Kw2KSfdPKbc4KW5EaQ-73" edge="1">
          <mxGeometry width="160" relative="1" as="geometry">
            <mxPoint x="310" y="280" as="sourcePoint" />
            <mxPoint x="240" y="140" as="targetPoint" />
          </mxGeometry>
        </mxCell>
        <mxCell id="mXlY7KT_1s7woqYxaAOp-3" value="Desktop" style="text;html=1;resizable=0;autosize=1;align=center;verticalAlign=middle;points=[];fillColor=none;strokeColor=none;rounded=0;" parent="1" vertex="1">
          <mxGeometry x="490" y="60" width="60" height="20" as="geometry" />
        </mxCell>
        <mxCell id="mXlY7KT_1s7woqYxaAOp-4" value="" style="verticalLabelPosition=bottom;verticalAlign=top;html=1;shape=mxgraph.basic.rect;fillColor2=none;strokeWidth=1;size=20;indent=5;" parent="1" vertex="1">
          <mxGeometry x="1040" y="40" width="880" height="730" as="geometry" />
        </mxCell>
        <mxCell id="mXlY7KT_1s7woqYxaAOp-5" value="Mobile" style="text;html=1;resizable=0;autosize=1;align=center;verticalAlign=middle;points=[];fillColor=none;strokeColor=none;rounded=0;" parent="1" vertex="1">
          <mxGeometry x="1465" y="60" width="50" height="20" as="geometry" />
        </mxCell>
        <mxCell id="mXlY7KT_1s7woqYxaAOp-6" value="Paciente" style="shape=umlActor;verticalLabelPosition=bottom;verticalAlign=top;html=1;outlineConnect=0;" parent="1" vertex="1">
          <mxGeometry x="960" y="260" width="40" height="80" as="geometry" />
        </mxCell>
        <mxCell id="mXlY7KT_1s7woqYxaAOp-7" value="Fazer Login" style="ellipse;whiteSpace=wrap;html=1;" parent="1" vertex="1">
          <mxGeometry x="1150" y="260" width="120" height="80" as="geometry" />
        </mxCell>
        <mxCell id="mXlY7KT_1s7woqYxaAOp-15" value="Verificar Senha" style="ellipse;whiteSpace=wrap;html=1;" parent="1" vertex="1">
          <mxGeometry x="1050" y="100" width="120" height="80" as="geometry" />
        </mxCell>
        <mxCell id="mXlY7KT_1s7woqYxaAOp-17" value="&amp;lt;&amp;lt;Incluir&amp;gt;&amp;gt;" style="endArrow=open;endSize=12;dashed=1;html=1;rounded=0;entryX=0.5;entryY=1;entryDx=0;entryDy=0;exitX=0.5;exitY=0;exitDx=0;exitDy=0;" parent="1" source="mXlY7KT_1s7woqYxaAOp-7" target="mXlY7KT_1s7woqYxaAOp-15" edge="1">
          <mxGeometry width="160" relative="1" as="geometry">
            <mxPoint x="1270" y="360" as="sourcePoint" />
            <mxPoint x="1680" y="450" as="targetPoint" />
          </mxGeometry>
        </mxCell>
        <mxCell id="mXlY7KT_1s7woqYxaAOp-19" value="" style="endArrow=none;html=1;rounded=0;exitX=0.5;exitY=0.5;exitDx=0;exitDy=0;exitPerimeter=0;" parent="1" source="mXlY7KT_1s7woqYxaAOp-6" edge="1">
          <mxGeometry width="50" height="50" relative="1" as="geometry">
            <mxPoint x="1065" y="330" as="sourcePoint" />
            <mxPoint x="1150" y="300" as="targetPoint" />
          </mxGeometry>
        </mxCell>
        <mxCell id="mXlY7KT_1s7woqYxaAOp-20" value="Nutricionista" style="shape=umlActor;verticalLabelPosition=bottom;verticalAlign=top;html=1;outlineConnect=0;" parent="1" vertex="1">
          <mxGeometry x="960" y="500" width="40" height="80" as="geometry" />
        </mxCell>
        <mxCell id="mXlY7KT_1s7woqYxaAOp-21" value="" style="endArrow=none;html=1;rounded=0;exitX=0.5;exitY=0.5;exitDx=0;exitDy=0;exitPerimeter=0;entryX=0;entryY=0.5;entryDx=0;entryDy=0;" parent="1" source="mXlY7KT_1s7woqYxaAOp-20" target="p4rxNmitmwS__qYtVaHP-2" edge="1">
          <mxGeometry width="50" height="50" relative="1" as="geometry">
            <mxPoint x="1010" y="558.28" as="sourcePoint" />
            <mxPoint x="1241.6399999999999" y="561.72" as="targetPoint" />
          </mxGeometry>
        </mxCell>
        <mxCell id="PoDoN_U7Sda3ssgrvNjG-2" value="" style="verticalLabelPosition=bottom;verticalAlign=top;html=1;shape=mxgraph.basic.rect;fillColor2=none;strokeWidth=1;size=20;indent=5;" parent="1" vertex="1">
          <mxGeometry x="2040" y="40" width="1120" height="730" as="geometry" />
        </mxCell>
        <mxCell id="PoDoN_U7Sda3ssgrvNjG-3" value="Web" style="text;html=1;resizable=0;autosize=1;align=center;verticalAlign=middle;points=[];fillColor=none;strokeColor=none;rounded=0;" parent="1" vertex="1">
          <mxGeometry x="2600" y="70" width="40" height="20" as="geometry" />
        </mxCell>
        <mxCell id="3YpMQV7ekp8sCcw4UBwF-2" value="" style="endArrow=none;html=1;rounded=0;exitX=1;exitY=0.5;exitDx=0;exitDy=0;entryX=0;entryY=0.5;entryDx=0;entryDy=0;" parent="1" target="3YpMQV7ekp8sCcw4UBwF-3" edge="1" source="mXlY7KT_1s7woqYxaAOp-7">
          <mxGeometry width="50" height="50" relative="1" as="geometry">
            <mxPoint x="1270" y="480" as="sourcePoint" />
            <mxPoint x="1440" y="399" as="targetPoint" />
          </mxGeometry>
        </mxCell>
        <mxCell id="3YpMQV7ekp8sCcw4UBwF-3" value="Visualizar pÃ¡gina&amp;nbsp;" style="ellipse;whiteSpace=wrap;html=1;" parent="1" vertex="1">
          <mxGeometry x="1355" y="260" width="120" height="80" as="geometry" />
        </mxCell>
        <mxCell id="3YpMQV7ekp8sCcw4UBwF-6" value="Visualizar o andamento de sua rotina" style="ellipse;whiteSpace=wrap;html=1;" parent="1" vertex="1">
          <mxGeometry x="1570" y="60" width="120" height="80" as="geometry" />
        </mxCell>
        <mxCell id="3YpMQV7ekp8sCcw4UBwF-7" value="Marcar itens feitos da rotina" style="ellipse;whiteSpace=wrap;html=1;" parent="1" vertex="1">
          <mxGeometry x="1790" y="60" width="120" height="80" as="geometry" />
        </mxCell>
        <mxCell id="3YpMQV7ekp8sCcw4UBwF-9" value="" style="endArrow=none;html=1;rounded=0;exitX=1;exitY=0.5;exitDx=0;exitDy=0;entryX=0;entryY=0.5;entryDx=0;entryDy=0;" parent="1" source="3YpMQV7ekp8sCcw4UBwF-3" target="3YpMQV7ekp8sCcw4UBwF-6" edge="1">
          <mxGeometry width="50" height="50" relative="1" as="geometry">
            <mxPoint x="1570" y="340" as="sourcePoint" />
            <mxPoint x="1620" y="290" as="targetPoint" />
          </mxGeometry>
        </mxCell>
        <mxCell id="3YpMQV7ekp8sCcw4UBwF-10" value="" style="endArrow=none;html=1;rounded=0;entryX=0;entryY=0.5;entryDx=0;entryDy=0;" parent="1" target="3YpMQV7ekp8sCcw4UBwF-7" edge="1" source="3YpMQV7ekp8sCcw4UBwF-6">
          <mxGeometry width="50" height="50" relative="1" as="geometry">
            <mxPoint x="1690" y="270" as="sourcePoint" />
            <mxPoint x="1580" y="280" as="targetPoint" />
          </mxGeometry>
        </mxCell>
        <mxCell id="3YpMQV7ekp8sCcw4UBwF-12" value="Visualizar o andamento da rotina de cada paciente" style="ellipse;whiteSpace=wrap;html=1;" parent="1" vertex="1">
          <mxGeometry x="1570" y="500" width="120" height="80" as="geometry" />
        </mxCell>
        <mxCell id="3YpMQV7ekp8sCcw4UBwF-13" value="" style="endArrow=none;html=1;rounded=0;entryX=0;entryY=0.5;entryDx=0;entryDy=0;exitX=1;exitY=0.5;exitDx=0;exitDy=0;" parent="1" source="p4rxNmitmwS__qYtVaHP-1" target="3YpMQV7ekp8sCcw4UBwF-12" edge="1">
          <mxGeometry width="50" height="50" relative="1" as="geometry">
            <mxPoint x="1360" y="510" as="sourcePoint" />
            <mxPoint x="1410" y="460" as="targetPoint" />
          </mxGeometry>
        </mxCell>
        <mxCell id="3YpMQV7ekp8sCcw4UBwF-18" value="Visualizar agenda de consultas com os pacientes" style="ellipse;whiteSpace=wrap;html=1;" parent="1" vertex="1">
          <mxGeometry x="1570" y="630" width="120" height="80" as="geometry" />
        </mxCell>
        <mxCell id="3YpMQV7ekp8sCcw4UBwF-19" value="" style="endArrow=none;html=1;rounded=0;entryX=0;entryY=0.5;entryDx=0;entryDy=0;exitX=1;exitY=0.5;exitDx=0;exitDy=0;" parent="1" source="p4rxNmitmwS__qYtVaHP-1" target="3YpMQV7ekp8sCcw4UBwF-18" edge="1">
          <mxGeometry width="50" height="50" relative="1" as="geometry">
            <mxPoint x="1510" y="570" as="sourcePoint" />
            <mxPoint x="1580" y="570" as="targetPoint" />
          </mxGeometry>
        </mxCell>
        <mxCell id="3YpMQV7ekp8sCcw4UBwF-20" value="Visualizar agenda de consultas" style="ellipse;whiteSpace=wrap;html=1;" parent="1" vertex="1">
          <mxGeometry x="1570" y="260" width="120" height="80" as="geometry" />
        </mxCell>
        <mxCell id="3YpMQV7ekp8sCcw4UBwF-21" value="" style="endArrow=none;html=1;rounded=0;entryX=0;entryY=0.5;entryDx=0;entryDy=0;exitX=1;exitY=0.5;exitDx=0;exitDy=0;" parent="1" source="3YpMQV7ekp8sCcw4UBwF-3" edge="1" target="3YpMQV7ekp8sCcw4UBwF-20">
          <mxGeometry width="50" height="50" relative="1" as="geometry">
            <mxPoint x="1500" y="399.5" as="sourcePoint" />
            <mxPoint x="1570" y="399.5" as="targetPoint" />
          </mxGeometry>
        </mxCell>
        <mxCell id="3YpMQV7ekp8sCcw4UBwF-22" value="UsuÃ¡rio" style="shape=umlActor;verticalLabelPosition=bottom;verticalAlign=top;html=1;outlineConnect=0;" parent="1" vertex="1">
          <mxGeometry x="1960" y="360" width="40" height="80" as="geometry" />
        </mxCell>
        <mxCell id="3YpMQV7ekp8sCcw4UBwF-32" value="Acessar site" style="ellipse;whiteSpace=wrap;html=1;" parent="1" vertex="1">
          <mxGeometry x="2190" y="360" width="120" height="80" as="geometry" />
        </mxCell>
        <mxCell id="3YpMQV7ekp8sCcw4UBwF-33" value="" style="endArrow=none;html=1;rounded=0;entryX=0;entryY=0.5;entryDx=0;entryDy=0;exitX=0.5;exitY=0.5;exitDx=0;exitDy=0;exitPerimeter=0;" parent="1" source="3YpMQV7ekp8sCcw4UBwF-22" target="3YpMQV7ekp8sCcw4UBwF-32" edge="1">
          <mxGeometry width="50" height="50" relative="1" as="geometry">
            <mxPoint x="2180" y="590" as="sourcePoint" />
            <mxPoint x="2230" y="540" as="targetPoint" />
          </mxGeometry>
        </mxCell>
        <mxCell id="3YpMQV7ekp8sCcw4UBwF-34" value="Visualizar informaÃ§Ãµes sobre a Ã¡rea de nutriÃ§Ã£o e novidades" style="ellipse;whiteSpace=wrap;html=1;" parent="1" vertex="1">
          <mxGeometry x="2560" y="240" width="120" height="80" as="geometry" />
        </mxCell>
        <mxCell id="3YpMQV7ekp8sCcw4UBwF-35" value="Visualizar dicas de dieta e receita" style="ellipse;whiteSpace=wrap;html=1;" parent="1" vertex="1">
          <mxGeometry x="2560" y="470" width="120" height="80" as="geometry" />
        </mxCell>
        <mxCell id="3YpMQV7ekp8sCcw4UBwF-37" value="Visualizar indicaÃ§Ãµes de produto" style="ellipse;whiteSpace=wrap;html=1;" parent="1" vertex="1">
          <mxGeometry x="2560" y="360" width="120" height="80" as="geometry" />
        </mxCell>
        <mxCell id="3YpMQV7ekp8sCcw4UBwF-38" value="Entrar na pÃ¡gina principal (home)" style="ellipse;whiteSpace=wrap;html=1;" parent="1" vertex="1">
          <mxGeometry x="2360" y="240" width="120" height="80" as="geometry" />
        </mxCell>
        <mxCell id="3YpMQV7ekp8sCcw4UBwF-39" value="" style="endArrow=none;html=1;rounded=0;entryX=0;entryY=0.5;entryDx=0;entryDy=0;exitX=1;exitY=0.5;exitDx=0;exitDy=0;" parent="1" source="3YpMQV7ekp8sCcw4UBwF-38" target="3YpMQV7ekp8sCcw4UBwF-34" edge="1">
          <mxGeometry width="50" height="50" relative="1" as="geometry">
            <mxPoint x="2400" y="360" as="sourcePoint" />
            <mxPoint x="2450" y="310" as="targetPoint" />
          </mxGeometry>
        </mxCell>
        <mxCell id="3YpMQV7ekp8sCcw4UBwF-41" value="Entrar na pÃ¡gina dietas e receitas" style="ellipse;whiteSpace=wrap;html=1;" parent="1" vertex="1">
          <mxGeometry x="2360" y="470" width="120" height="80" as="geometry" />
        </mxCell>
        <mxCell id="3YpMQV7ekp8sCcw4UBwF-42" value="Entrar na pÃ¡gina IndicaÃ§Ãµes de Produto" style="ellipse;whiteSpace=wrap;html=1;" parent="1" vertex="1">
          <mxGeometry x="2360" y="360" width="120" height="80" as="geometry" />
        </mxCell>
        <mxCell id="3YpMQV7ekp8sCcw4UBwF-43" value="" style="endArrow=none;html=1;rounded=0;entryX=0;entryY=0.5;entryDx=0;entryDy=0;exitX=1;exitY=0.5;exitDx=0;exitDy=0;" parent="1" source="3YpMQV7ekp8sCcw4UBwF-42" target="3YpMQV7ekp8sCcw4UBwF-37" edge="1">
          <mxGeometry width="50" height="50" relative="1" as="geometry">
            <mxPoint x="2480" y="330" as="sourcePoint" />
            <mxPoint x="2530" y="280" as="targetPoint" />
          </mxGeometry>
        </mxCell>
        <mxCell id="3YpMQV7ekp8sCcw4UBwF-44" value="" style="endArrow=none;html=1;rounded=0;entryX=0;entryY=0.5;entryDx=0;entryDy=0;exitX=1;exitY=0.5;exitDx=0;exitDy=0;" parent="1" edge="1">
          <mxGeometry width="50" height="50" relative="1" as="geometry">
            <mxPoint x="2480" y="509.5" as="sourcePoint" />
            <mxPoint x="2560" y="509.5" as="targetPoint" />
          </mxGeometry>
        </mxCell>
        <mxCell id="3YpMQV7ekp8sCcw4UBwF-45" value="" style="endArrow=none;html=1;rounded=0;entryX=0;entryY=0.5;entryDx=0;entryDy=0;exitX=1;exitY=0.5;exitDx=0;exitDy=0;" parent="1" source="3YpMQV7ekp8sCcw4UBwF-32" target="3YpMQV7ekp8sCcw4UBwF-42" edge="1">
          <mxGeometry width="50" height="50" relative="1" as="geometry">
            <mxPoint x="2490" y="410" as="sourcePoint" />
            <mxPoint x="2570" y="410" as="targetPoint" />
          </mxGeometry>
        </mxCell>
        <mxCell id="3YpMQV7ekp8sCcw4UBwF-46" value="" style="endArrow=none;html=1;rounded=0;entryX=0;entryY=0.5;entryDx=0;entryDy=0;exitX=1;exitY=0.5;exitDx=0;exitDy=0;" parent="1" source="3YpMQV7ekp8sCcw4UBwF-32" target="3YpMQV7ekp8sCcw4UBwF-41" edge="1">
          <mxGeometry width="50" height="50" relative="1" as="geometry">
            <mxPoint x="2320" y="410" as="sourcePoint" />
            <mxPoint x="2370" y="410" as="targetPoint" />
          </mxGeometry>
        </mxCell>
        <mxCell id="3YpMQV7ekp8sCcw4UBwF-47" value="" style="endArrow=none;html=1;rounded=0;entryX=0;entryY=0.5;entryDx=0;entryDy=0;exitX=1;exitY=0.5;exitDx=0;exitDy=0;" parent="1" source="3YpMQV7ekp8sCcw4UBwF-32" target="3YpMQV7ekp8sCcw4UBwF-38" edge="1">
          <mxGeometry width="50" height="50" relative="1" as="geometry">
            <mxPoint x="2320" y="410" as="sourcePoint" />
            <mxPoint x="2370" y="410" as="targetPoint" />
          </mxGeometry>
        </mxCell>
        <mxCell id="YK20K4Kz9JGrFYcbCYYz-2" value="Visualizar comentÃ¡rios" style="ellipse;whiteSpace=wrap;html=1;" parent="1" vertex="1">
          <mxGeometry x="2750" y="470" width="120" height="80" as="geometry" />
        </mxCell>
        <mxCell id="YK20K4Kz9JGrFYcbCYYz-3" value="Postar um comentÃ¡rio" style="ellipse;whiteSpace=wrap;html=1;" parent="1" vertex="1">
          <mxGeometry x="2950" y="60" width="120" height="80" as="geometry" />
        </mxCell>
        <mxCell id="YK20K4Kz9JGrFYcbCYYz-4" value="Responder comentÃ¡rio via e-mail" style="ellipse;whiteSpace=wrap;html=1;" parent="1" vertex="1">
          <mxGeometry x="2950" y="160" width="120" height="80" as="geometry" />
        </mxCell>
        <mxCell id="YK20K4Kz9JGrFYcbCYYz-5" value="Visualizar comentÃ¡rios" style="ellipse;whiteSpace=wrap;html=1;" parent="1" vertex="1">
          <mxGeometry x="2750" y="360" width="120" height="80" as="geometry" />
        </mxCell>
        <mxCell id="YK20K4Kz9JGrFYcbCYYz-6" value="Visualizar comentÃ¡rios" style="ellipse;whiteSpace=wrap;html=1;" parent="1" vertex="1">
          <mxGeometry x="2750" y="240" width="120" height="80" as="geometry" />
        </mxCell>
        <mxCell id="YK20K4Kz9JGrFYcbCYYz-7" value="" style="endArrow=none;html=1;rounded=0;entryX=0;entryY=0.5;entryDx=0;entryDy=0;exitX=1;exitY=0.5;exitDx=0;exitDy=0;" parent="1" source="3YpMQV7ekp8sCcw4UBwF-34" target="YK20K4Kz9JGrFYcbCYYz-6" edge="1">
          <mxGeometry width="50" height="50" relative="1" as="geometry">
            <mxPoint x="2670" y="279" as="sourcePoint" />
            <mxPoint x="2750" y="279" as="targetPoint" />
          </mxGeometry>
        </mxCell>
        <mxCell id="YK20K4Kz9JGrFYcbCYYz-8" value="" style="endArrow=none;html=1;rounded=0;entryX=0;entryY=0.5;entryDx=0;entryDy=0;exitX=1;exitY=0.5;exitDx=0;exitDy=0;" parent="1" source="3YpMQV7ekp8sCcw4UBwF-37" target="YK20K4Kz9JGrFYcbCYYz-5" edge="1">
          <mxGeometry width="50" height="50" relative="1" as="geometry">
            <mxPoint x="2690" y="290" as="sourcePoint" />
            <mxPoint x="2760" y="290" as="targetPoint" />
          </mxGeometry>
        </mxCell>
        <mxCell id="YK20K4Kz9JGrFYcbCYYz-9" value="" style="endArrow=none;html=1;rounded=0;entryX=0;entryY=0.5;entryDx=0;entryDy=0;exitX=1;exitY=0.5;exitDx=0;exitDy=0;" parent="1" source="3YpMQV7ekp8sCcw4UBwF-35" target="YK20K4Kz9JGrFYcbCYYz-2" edge="1">
          <mxGeometry width="50" height="50" relative="1" as="geometry">
            <mxPoint x="2690" y="410" as="sourcePoint" />
            <mxPoint x="2760" y="410" as="targetPoint" />
          </mxGeometry>
        </mxCell>
        <mxCell id="YK20K4Kz9JGrFYcbCYYz-10" value="" style="endArrow=none;html=1;rounded=0;exitX=1;exitY=0.5;exitDx=0;exitDy=0;entryX=0;entryY=0.5;entryDx=0;entryDy=0;" parent="1" source="YK20K4Kz9JGrFYcbCYYz-6" target="YK20K4Kz9JGrFYcbCYYz-4" edge="1">
          <mxGeometry width="50" height="50" relative="1" as="geometry">
            <mxPoint x="2690" y="290" as="sourcePoint" />
            <mxPoint x="2760" y="290" as="targetPoint" />
          </mxGeometry>
        </mxCell>
        <mxCell id="YK20K4Kz9JGrFYcbCYYz-11" value="" style="endArrow=none;html=1;rounded=0;exitX=1;exitY=0.5;exitDx=0;exitDy=0;entryX=0;entryY=0.5;entryDx=0;entryDy=0;" parent="1" source="YK20K4Kz9JGrFYcbCYYz-6" target="YK20K4Kz9JGrFYcbCYYz-3" edge="1">
          <mxGeometry width="50" height="50" relative="1" as="geometry">
            <mxPoint x="2880" y="290" as="sourcePoint" />
            <mxPoint x="2960" y="290" as="targetPoint" />
          </mxGeometry>
        </mxCell>
        <mxCell id="YK20K4Kz9JGrFYcbCYYz-12" value="Postar um comentÃ¡rio" style="ellipse;whiteSpace=wrap;html=1;" parent="1" vertex="1">
          <mxGeometry x="2950" y="530" width="120" height="80" as="geometry" />
        </mxCell>
        <mxCell id="YK20K4Kz9JGrFYcbCYYz-13" value="Responder comentÃ¡rio via e-mail" style="ellipse;whiteSpace=wrap;html=1;" parent="1" vertex="1">
          <mxGeometry x="2950" y="640" width="120" height="80" as="geometry" />
        </mxCell>
        <mxCell id="YK20K4Kz9JGrFYcbCYYz-14" value="" style="endArrow=none;html=1;rounded=0;exitX=1;exitY=0.5;exitDx=0;exitDy=0;entryX=0;entryY=0.5;entryDx=0;entryDy=0;" parent="1" target="YK20K4Kz9JGrFYcbCYYz-13" edge="1">
          <mxGeometry width="50" height="50" relative="1" as="geometry">
            <mxPoint x="2870" y="510" as="sourcePoint" />
            <mxPoint x="2760" y="520" as="targetPoint" />
          </mxGeometry>
        </mxCell>
        <mxCell id="YK20K4Kz9JGrFYcbCYYz-15" value="" style="endArrow=none;html=1;rounded=0;exitX=1;exitY=0.5;exitDx=0;exitDy=0;entryX=0;entryY=0.5;entryDx=0;entryDy=0;" parent="1" target="YK20K4Kz9JGrFYcbCYYz-12" edge="1">
          <mxGeometry width="50" height="50" relative="1" as="geometry">
            <mxPoint x="2870" y="510" as="sourcePoint" />
            <mxPoint x="2960" y="520" as="targetPoint" />
          </mxGeometry>
        </mxCell>
        <mxCell id="YK20K4Kz9JGrFYcbCYYz-16" value="Postar um comentÃ¡rio" style="ellipse;whiteSpace=wrap;html=1;" parent="1" vertex="1">
          <mxGeometry x="2950" y="300" width="120" height="80" as="geometry" />
        </mxCell>
        <mxCell id="YK20K4Kz9JGrFYcbCYYz-17" value="Responder comentÃ¡rio via e-mail" style="ellipse;whiteSpace=wrap;html=1;" parent="1" vertex="1">
          <mxGeometry x="2950" y="400" width="120" height="80" as="geometry" />
        </mxCell>
        <mxCell id="YK20K4Kz9JGrFYcbCYYz-18" value="" style="endArrow=none;html=1;rounded=0;exitX=1;exitY=0.5;exitDx=0;exitDy=0;entryX=0;entryY=0.5;entryDx=0;entryDy=0;" parent="1" source="YK20K4Kz9JGrFYcbCYYz-5" target="YK20K4Kz9JGrFYcbCYYz-17" edge="1">
          <mxGeometry width="50" height="50" relative="1" as="geometry">
            <mxPoint x="2870" y="520" as="sourcePoint" />
            <mxPoint x="2760" y="530" as="targetPoint" />
          </mxGeometry>
        </mxCell>
        <mxCell id="YK20K4Kz9JGrFYcbCYYz-19" value="" style="endArrow=none;html=1;rounded=0;exitX=1;exitY=0.5;exitDx=0;exitDy=0;entryX=0;entryY=0.5;entryDx=0;entryDy=0;" parent="1" source="YK20K4Kz9JGrFYcbCYYz-5" target="YK20K4Kz9JGrFYcbCYYz-16" edge="1">
          <mxGeometry width="50" height="50" relative="1" as="geometry">
            <mxPoint x="2870" y="520" as="sourcePoint" />
            <mxPoint x="2960" y="530" as="targetPoint" />
          </mxGeometry>
        </mxCell>
        <mxCell id="p4rxNmitmwS__qYtVaHP-1" value="Visualizar pÃ¡gina&amp;nbsp;" style="ellipse;whiteSpace=wrap;html=1;" vertex="1" parent="1">
          <mxGeometry x="1355" y="500" width="120" height="80" as="geometry" />
        </mxCell>
        <mxCell id="p4rxNmitmwS__qYtVaHP-2" value="Fazer Login" style="ellipse;whiteSpace=wrap;html=1;" vertex="1" parent="1">
          <mxGeometry x="1150" y="500" width="120" height="80" as="geometry" />
        </mxCell>
        <mxCell id="p4rxNmitmwS__qYtVaHP-3" value="Verificar Senha" style="ellipse;whiteSpace=wrap;html=1;" vertex="1" parent="1">
          <mxGeometry x="1050" y="670" width="120" height="80" as="geometry" />
        </mxCell>
        <mxCell id="p4rxNmitmwS__qYtVaHP-4" value="&amp;lt;&amp;lt;Incluir&amp;gt;&amp;gt;" style="endArrow=open;endSize=12;dashed=1;html=1;rounded=0;exitX=0.5;exitY=1;exitDx=0;exitDy=0;entryX=0.5;entryY=0;entryDx=0;entryDy=0;" edge="1" parent="1" source="p4rxNmitmwS__qYtVaHP-2" target="p4rxNmitmwS__qYtVaHP-3">
          <mxGeometry width="160" relative="1" as="geometry">
            <mxPoint x="1275" y="640" as="sourcePoint" />
            <mxPoint x="1215" y="670" as="targetPoint" />
          </mxGeometry>
        </mxCell>
        <mxCell id="p4rxNmitmwS__qYtVaHP-5" value="" style="endArrow=none;html=1;rounded=0;exitX=1;exitY=0.5;exitDx=0;exitDy=0;entryX=0;entryY=0.5;entryDx=0;entryDy=0;" edge="1" parent="1" source="p4rxNmitmwS__qYtVaHP-2" target="p4rxNmitmwS__qYtVaHP-1">
          <mxGeometry width="50" height="50" relative="1" as="geometry">
            <mxPoint x="1280" y="310" as="sourcePoint" />
            <mxPoint x="1365" y="310" as="targetPoint" />
          </mxGeometry>
        </mxCell>
        <mxCell id="p4rxNmitmwS__qYtVaHP-6" value="Verificar Tipo do UsuÃ¡rio" style="ellipse;whiteSpace=wrap;html=1;" vertex="1" parent="1">
          <mxGeometry x="1260" y="670" width="120" height="80" as="geometry" />
        </mxCell>
        <mxCell id="p4rxNmitmwS__qYtVaHP-7" value="&amp;lt;&amp;lt;Incluir&amp;gt;&amp;gt;" style="endArrow=open;endSize=12;dashed=1;html=1;rounded=0;entryX=0.5;entryY=0;entryDx=0;entryDy=0;exitX=0.5;exitY=1;exitDx=0;exitDy=0;" edge="1" parent="1" target="p4rxNmitmwS__qYtVaHP-6" source="p4rxNmitmwS__qYtVaHP-2">
          <mxGeometry width="160" relative="1" as="geometry">
            <mxPoint x="1240" y="585" as="sourcePoint" />
            <mxPoint x="1245" y="345" as="targetPoint" />
          </mxGeometry>
        </mxCell>
        <mxCell id="p4rxNmitmwS__qYtVaHP-8" value="Verificar Tipo do UsuÃ¡rio" style="ellipse;whiteSpace=wrap;html=1;" vertex="1" parent="1">
          <mxGeometry x="1260" y="100" width="120" height="80" as="geometry" />
        </mxCell>
        <mxCell id="p4rxNmitmwS__qYtVaHP-9" value="&amp;lt;&amp;lt;Incluir&amp;gt;&amp;gt;" style="endArrow=open;endSize=12;dashed=1;html=1;rounded=0;entryX=0.5;entryY=1;entryDx=0;entryDy=0;exitX=0.5;exitY=0;exitDx=0;exitDy=0;" edge="1" parent="1" target="p4rxNmitmwS__qYtVaHP-8" source="mXlY7KT_1s7woqYxaAOp-7">
          <mxGeometry width="160" relative="1" as="geometry">
            <mxPoint x="1320" y="-20" as="sourcePoint" />
            <mxPoint x="1260" y="-230" as="targetPoint" />
          </mxGeometry>
        </mxCell>
      </root>
    </mxGraphModel>
  </diagram>
</mxfile>
